<svg width="118" height="36" viewBox="0 0 128 38" fill="none" xmlns="http://www.w3.org/2000/svg">
<g clip-path="url(#clip0_121_28)">
<circle cx="19" cy="19" r="19" fill="#91F6FF"/>
<path d="M1.1875 14.8438L1.40165 14.3441C3.82059 8.69988 11.2376 7.39514 15.4375 11.875V11.875V11.875C20.0396 17.4633 28.2865 18.2964 33.9132 13.7414L36.2188 11.875L36.8125 15.4375L37.4062 21.9688L34.4375 28.5L7.125 32.6562L2.96875 27.9062L0.59375 21.375L1.1875 14.8438Z" fill="#00B2CA"/>
<path d="M33.9375 29.0938C33.9375 29.6387 33.5852 30.4426 32.8137 31.3878C32.0586 32.3129 30.9582 33.304 29.6006 34.2148C26.883 36.0381 23.1948 37.5 19.3032 37.5C15.4091 37.5 11.5659 36.0363 8.6924 34.2082C7.25734 33.2952 6.08104 32.3019 5.27 31.3747C4.43854 30.4242 4.0625 29.6254 4.0625 29.0938C4.0625 28.6073 4.3911 28.0419 5.19359 27.4403C5.98274 26.8487 7.14236 26.2917 8.58176 25.8132C11.4552 24.8578 15.336 24.25 19.3032 24.25C23.2703 24.25 26.9962 24.8578 29.7138 25.8105C31.0749 26.2878 32.1566 26.8424 32.8879 27.43C33.6266 28.0236 33.9375 28.5903 33.9375 29.0938Z" fill="#14485E" stroke="white"/>
<path d="M33.9375 20.7812C33.9375 22.4906 33.4329 24.0178 32.6419 25.1055C31.8505 26.1936 30.7998 26.8125 29.6875 26.8125C28.5752 26.8125 27.5245 26.1936 26.7331 25.1055C25.9421 24.0178 25.4375 22.4906 25.4375 20.7812C25.4375 19.0719 25.9421 17.5447 26.7331 16.457C27.5245 15.3689 28.5752 14.75 29.6875 14.75C30.7998 14.75 31.8505 15.3689 32.6419 16.457C33.4329 17.5447 33.9375 19.0719 33.9375 20.7812Z" fill="#14485E" stroke="white"/>
<path d="M12.5625 20.7812C12.5625 22.4906 12.0579 24.0178 11.2669 25.1055C10.4755 26.1936 9.4248 26.8125 8.3125 26.8125C7.2002 26.8125 6.14947 26.1936 5.35811 25.1055C4.56711 24.0178 4.0625 22.4906 4.0625 20.7812C4.0625 19.0719 4.56711 17.5447 5.35811 16.457C6.14947 15.3689 7.2002 14.75 8.3125 14.75C9.4248 14.75 10.4755 15.3689 11.2669 16.457C12.0579 17.5447 12.5625 19.0719 12.5625 20.7812Z" fill="#14485E" stroke="white"/>
<circle cx="19" cy="20.1875" r="11.375" fill="#14485E" stroke="white"/>
<circle cx="19" cy="20.1875" r="5.4375" fill="#00B2CA" stroke="white"/>
<circle cx="22.5625" cy="5.9375" r="2.375" fill="#00B2CA"/>
<circle cx="23.1562" cy="12.4688" r="1.78125" fill="#00B2CA"/>
<circle cx="20.1875" cy="19" r="2.375" fill="white"/>
<circle cx="24.9375" cy="9.5" r="1.1875" fill="#00B2CA"/>
<circle cx="19" cy="19" r="18.5" stroke="white"/>
<path d="M47.494 12.4H53.218C54.586 12.4 55.792 12.664 56.836 13.192C57.892 13.708 58.708 14.44 59.284 15.388C59.872 16.336 60.166 17.44 60.166 18.7C60.166 19.96 59.872 21.064 59.284 22.012C58.708 22.96 57.892 23.698 56.836 24.226C55.792 24.742 54.586 25 53.218 25H47.494V12.4ZM53.074 22.606C54.334 22.606 55.336 22.258 56.08 21.562C56.836 20.854 57.214 19.9 57.214 18.7C57.214 17.5 56.836 16.552 56.08 15.856C55.336 15.148 54.334 14.794 53.074 14.794H50.41V22.606H53.074ZM67.0451 22.894C67.5491 22.894 67.9931 22.822 68.3771 22.678C68.7731 22.522 69.1391 22.282 69.4751 21.958L70.9691 23.578C70.0571 24.622 68.7251 25.144 66.9731 25.144C65.8811 25.144 64.9151 24.934 64.0751 24.514C63.2351 24.082 62.5871 23.488 62.1311 22.732C61.6751 21.976 61.4471 21.118 61.4471 20.158C61.4471 19.21 61.6691 18.358 62.1131 17.602C62.5691 16.834 63.1871 16.24 63.9671 15.82C64.7591 15.388 65.6471 15.172 66.6311 15.172C67.5551 15.172 68.3951 15.37 69.1511 15.766C69.9071 16.15 70.5071 16.714 70.9511 17.458C71.4071 18.19 71.6351 19.06 71.6351 20.068L64.4711 21.454C64.6751 21.934 64.9931 22.294 65.4251 22.534C65.8691 22.774 66.4091 22.894 67.0451 22.894ZM66.6311 17.296C65.9231 17.296 65.3471 17.524 64.9031 17.98C64.4591 18.436 64.2251 19.066 64.2011 19.87L68.9171 18.952C68.7851 18.448 68.5151 18.046 68.1071 17.746C67.6991 17.446 67.2071 17.296 66.6311 17.296ZM78.4006 22.894C78.9046 22.894 79.3486 22.822 79.7326 22.678C80.1286 22.522 80.4946 22.282 80.8306 21.958L82.3246 23.578C81.4126 24.622 80.0806 25.144 78.3286 25.144C77.2366 25.144 76.2706 24.934 75.4306 24.514C74.5906 24.082 73.9426 23.488 73.4866 22.732C73.0306 21.976 72.8026 21.118 72.8026 20.158C72.8026 19.21 73.0246 18.358 73.4686 17.602C73.9246 16.834 74.5426 16.24 75.3226 15.82C76.1146 15.388 77.0026 15.172 77.9866 15.172C78.9106 15.172 79.7506 15.37 80.5066 15.766C81.2626 16.15 81.8626 16.714 82.3066 17.458C82.7626 18.19 82.9906 19.06 82.9906 20.068L75.8266 21.454C76.0306 21.934 76.3486 22.294 76.7806 22.534C77.2246 22.774 77.7646 22.894 78.4006 22.894ZM77.9866 17.296C77.2786 17.296 76.7026 17.524 76.2586 17.98C75.8146 18.436 75.5806 19.066 75.5566 19.87L80.2726 18.952C80.1406 18.448 79.8706 18.046 79.4626 17.746C79.0546 17.446 78.5626 17.296 77.9866 17.296ZM90.602 15.172C91.502 15.172 92.318 15.382 93.05 15.802C93.794 16.21 94.376 16.792 94.796 17.548C95.216 18.292 95.426 19.162 95.426 20.158C95.426 21.154 95.216 22.03 94.796 22.786C94.376 23.53 93.794 24.112 93.05 24.532C92.318 24.94 91.502 25.144 90.602 25.144C89.366 25.144 88.394 24.754 87.686 23.974V28.492H84.878V15.316H87.56V16.432C88.256 15.592 89.27 15.172 90.602 15.172ZM90.116 22.84C90.836 22.84 91.424 22.6 91.88 22.12C92.348 21.628 92.582 20.974 92.582 20.158C92.582 19.342 92.348 18.694 91.88 18.214C91.424 17.722 90.836 17.476 90.116 17.476C89.396 17.476 88.802 17.722 88.334 18.214C87.878 18.694 87.65 19.342 87.65 20.158C87.65 20.974 87.878 21.628 88.334 22.12C88.802 22.6 89.396 22.84 90.116 22.84ZM100.564 25.144C99.7598 25.144 98.9738 25.048 98.2058 24.856C97.4378 24.652 96.8258 24.4 96.3698 24.1L97.3058 22.084C97.7378 22.36 98.2598 22.588 98.8718 22.768C99.4838 22.936 100.084 23.02 100.672 23.02C101.86 23.02 102.454 22.726 102.454 22.138C102.454 21.862 102.292 21.664 101.968 21.544C101.644 21.424 101.146 21.322 100.474 21.238C99.6818 21.118 99.0278 20.98 98.5118 20.824C97.9958 20.668 97.5458 20.392 97.1618 19.996C96.7898 19.6 96.6038 19.036 96.6038 18.304C96.6038 17.692 96.7778 17.152 97.1258 16.684C97.4858 16.204 98.0018 15.832 98.6738 15.568C99.3578 15.304 100.162 15.172 101.086 15.172C101.77 15.172 102.448 15.25 103.12 15.406C103.804 15.55 104.368 15.754 104.812 16.018L103.876 18.016C103.024 17.536 102.094 17.296 101.086 17.296C100.486 17.296 100.036 17.38 99.7358 17.548C99.4358 17.716 99.2858 17.932 99.2858 18.196C99.2858 18.496 99.4478 18.706 99.7718 18.826C100.096 18.946 100.612 19.06 101.32 19.168C102.112 19.3 102.76 19.444 103.264 19.6C103.768 19.744 104.206 20.014 104.578 20.41C104.95 20.806 105.136 21.358 105.136 22.066C105.136 22.666 104.956 23.2 104.596 23.668C104.236 24.136 103.708 24.502 103.012 24.766C102.328 25.018 101.512 25.144 100.564 25.144ZM111.746 22.894C112.25 22.894 112.694 22.822 113.078 22.678C113.474 22.522 113.84 22.282 114.176 21.958L115.67 23.578C114.758 24.622 113.426 25.144 111.674 25.144C110.582 25.144 109.616 24.934 108.776 24.514C107.936 24.082 107.288 23.488 106.832 22.732C106.376 21.976 106.148 21.118 106.148 20.158C106.148 19.21 106.37 18.358 106.814 17.602C107.27 16.834 107.888 16.24 108.668 15.82C109.46 15.388 110.348 15.172 111.332 15.172C112.256 15.172 113.096 15.37 113.852 15.766C114.608 16.15 115.208 16.714 115.652 17.458C116.108 18.19 116.336 19.06 116.336 20.068L109.172 21.454C109.376 21.934 109.694 22.294 110.126 22.534C110.57 22.774 111.11 22.894 111.746 22.894ZM111.332 17.296C110.624 17.296 110.048 17.524 109.604 17.98C109.16 18.436 108.926 19.066 108.902 19.87L113.618 18.952C113.486 18.448 113.216 18.046 112.808 17.746C112.4 17.446 111.908 17.296 111.332 17.296ZM123.102 22.894C123.606 22.894 124.05 22.822 124.434 22.678C124.83 22.522 125.196 22.282 125.532 21.958L127.026 23.578C126.114 24.622 124.782 25.144 123.03 25.144C121.938 25.144 120.972 24.934 120.132 24.514C119.292 24.082 118.644 23.488 118.188 22.732C117.732 21.976 117.504 21.118 117.504 20.158C117.504 19.21 117.726 18.358 118.17 17.602C118.626 16.834 119.244 16.24 120.024 15.82C120.816 15.388 121.704 15.172 122.688 15.172C123.612 15.172 124.452 15.37 125.208 15.766C125.964 16.15 126.564 16.714 127.008 17.458C127.464 18.19 127.692 19.06 127.692 20.068L120.528 21.454C120.732 21.934 121.05 22.294 121.482 22.534C121.926 22.774 122.466 22.894 123.102 22.894ZM122.688 17.296C121.98 17.296 121.404 17.524 120.96 17.98C120.516 18.436 120.282 19.066 120.258 19.87L124.974 18.952C124.842 18.448 124.572 18.046 124.164 17.746C123.756 17.446 123.264 17.296 122.688 17.296Z" fill="#091C42"/>
</g>
</svg>
