<svg width="146" height="44" viewBox="0 0 146 44" fill="none" xmlns="http://www.w3.org/2000/svg">
<path d="M38.0167 32.0938C38.0167 32.6387 37.6643 33.4426 36.8929 34.3878C36.1378 35.3129 35.0374 36.304 33.6798 37.2148C30.9622 39.0381 27.2739 40.5 23.3824 40.5C19.4882 40.5 15.645 39.0363 12.7716 37.2082C11.3365 36.2952 10.1602 35.3019 9.34916 34.3747C8.51771 33.4242 8.14166 32.6254 8.14166 32.0938C8.14166 31.6073 8.47026 31.0419 9.27275 30.4403C10.0619 29.8487 11.2215 29.2917 12.6609 28.8132C15.5343 27.8578 19.4151 27.25 23.3824 27.25C27.3494 27.25 31.0754 27.8578 33.7929 28.8105C35.1541 29.2878 36.2358 29.8424 36.9671 30.43C37.7058 31.0236 38.0167 31.5903 38.0167 32.0938Z" fill="#091C42" stroke="white"/>
<path d="M38.0167 23.7812C38.0167 25.4906 37.5121 27.0178 36.7211 28.1055C35.9297 29.1936 34.879 29.8125 33.7667 29.8125C32.6544 29.8125 31.6036 29.1936 30.8123 28.1055C30.0213 27.0178 29.5167 25.4906 29.5167 23.7812C29.5167 22.0719 30.0213 20.5447 30.8123 19.457C31.6036 18.3689 32.6544 17.75 33.7667 17.75C34.879 17.75 35.9297 18.3689 36.7211 19.457C37.5121 20.5447 38.0167 22.0719 38.0167 23.7812Z" fill="#091C42" stroke="white"/>
<path d="M16.6417 23.7812C16.6417 25.4906 16.1371 27.0178 15.3461 28.1055C14.5547 29.1936 13.504 29.8125 12.3917 29.8125C11.2794 29.8125 10.2286 29.1936 9.43727 28.1055C8.64627 27.0178 8.14166 25.4906 8.14166 23.7812C8.14166 22.0719 8.64627 20.5447 9.43727 19.457C10.2286 18.3689 11.2794 17.75 12.3917 17.75C13.504 17.75 14.5547 18.3689 15.3461 19.457C16.1371 20.5447 16.6417 22.0719 16.6417 23.7812Z" fill="#091C42" stroke="white"/>
<circle cx="23.0792" cy="23.1875" r="11.375" fill="#091C42" stroke="white"/>
<circle cx="23.0792" cy="23.1875" r="5.4375" stroke="white"/>
<circle cx="26.6417" cy="8.9375" r="2.375" fill="white"/>
<circle cx="27.2354" cy="15.4688" r="1.78125" fill="white"/>
<circle cx="24.2667" cy="22" r="2.375" fill="white"/>
<circle cx="29.0167" cy="12.5" r="1.1875" fill="white"/>
<circle cx="23.0792" cy="22" r="18.5" stroke="white"/>
<path d="M51.5732 15.4H57.2972C58.6652 15.4 59.8712 15.664 60.9152 16.192C61.9712 16.708 62.7872 17.44 63.3632 18.388C63.9512 19.336 64.2452 20.44 64.2452 21.7C64.2452 22.96 63.9512 24.064 63.3632 25.012C62.7872 25.96 61.9712 26.698 60.9152 27.226C59.8712 27.742 58.6652 28 57.2972 28H51.5732V15.4ZM57.1532 25.606C58.4132 25.606 59.4152 25.258 60.1592 24.562C60.9152 23.854 61.2932 22.9 61.2932 21.7C61.2932 20.5 60.9152 19.552 60.1592 18.856C59.4152 18.148 58.4132 17.794 57.1532 17.794H54.4892V25.606H57.1532ZM71.1243 25.894C71.6283 25.894 72.0723 25.822 72.4563 25.678C72.8523 25.522 73.2183 25.282 73.5543 24.958L75.0483 26.578C74.1363 27.622 72.8043 28.144 71.0523 28.144C69.9603 28.144 68.9943 27.934 68.1543 27.514C67.3143 27.082 66.6663 26.488 66.2103 25.732C65.7543 24.976 65.5263 24.118 65.5263 23.158C65.5263 22.21 65.7483 21.358 66.1923 20.602C66.6483 19.834 67.2663 19.24 68.0463 18.82C68.8383 18.388 69.7263 18.172 70.7103 18.172C71.6343 18.172 72.4743 18.37 73.2303 18.766C73.9863 19.15 74.5863 19.714 75.0303 20.458C75.4863 21.19 75.7143 22.06 75.7143 23.068L68.5503 24.454C68.7543 24.934 69.0723 25.294 69.5043 25.534C69.9483 25.774 70.4883 25.894 71.1243 25.894ZM70.7103 20.296C70.0023 20.296 69.4263 20.524 68.9823 20.98C68.5383 21.436 68.3043 22.066 68.2803 22.87L72.9963 21.952C72.8643 21.448 72.5943 21.046 72.1863 20.746C71.7783 20.446 71.2863 20.296 70.7103 20.296ZM82.4797 25.894C82.9837 25.894 83.4277 25.822 83.8117 25.678C84.2077 25.522 84.5737 25.282 84.9097 24.958L86.4037 26.578C85.4917 27.622 84.1597 28.144 82.4077 28.144C81.3157 28.144 80.3497 27.934 79.5097 27.514C78.6697 27.082 78.0217 26.488 77.5657 25.732C77.1097 24.976 76.8817 24.118 76.8817 23.158C76.8817 22.21 77.1037 21.358 77.5477 20.602C78.0037 19.834 78.6217 19.24 79.4017 18.82C80.1937 18.388 81.0817 18.172 82.0657 18.172C82.9897 18.172 83.8297 18.37 84.5857 18.766C85.3417 19.15 85.9417 19.714 86.3857 20.458C86.8417 21.19 87.0697 22.06 87.0697 23.068L79.9057 24.454C80.1097 24.934 80.4277 25.294 80.8597 25.534C81.3037 25.774 81.8437 25.894 82.4797 25.894ZM82.0657 20.296C81.3577 20.296 80.7817 20.524 80.3377 20.98C79.8937 21.436 79.6597 22.066 79.6357 22.87L84.3517 21.952C84.2197 21.448 83.9497 21.046 83.5417 20.746C83.1337 20.446 82.6417 20.296 82.0657 20.296ZM94.6812 18.172C95.5812 18.172 96.3972 18.382 97.1292 18.802C97.8732 19.21 98.4552 19.792 98.8752 20.548C99.2952 21.292 99.5052 22.162 99.5052 23.158C99.5052 24.154 99.2952 25.03 98.8752 25.786C98.4552 26.53 97.8732 27.112 97.1292 27.532C96.3972 27.94 95.5812 28.144 94.6812 28.144C93.4452 28.144 92.4732 27.754 91.7652 26.974V31.492H88.9572V18.316H91.6392V19.432C92.3352 18.592 93.3492 18.172 94.6812 18.172ZM94.1952 25.84C94.9152 25.84 95.5032 25.6 95.9592 25.12C96.4272 24.628 96.6612 23.974 96.6612 23.158C96.6612 22.342 96.4272 21.694 95.9592 21.214C95.5032 20.722 94.9152 20.476 94.1952 20.476C93.4752 20.476 92.8812 20.722 92.4132 21.214C91.9572 21.694 91.7292 22.342 91.7292 23.158C91.7292 23.974 91.9572 24.628 92.4132 25.12C92.8812 25.6 93.4752 25.84 94.1952 25.84ZM104.643 28.144C103.839 28.144 103.053 28.048 102.285 27.856C101.517 27.652 100.905 27.4 100.449 27.1L101.385 25.084C101.817 25.36 102.339 25.588 102.951 25.768C103.563 25.936 104.163 26.02 104.751 26.02C105.939 26.02 106.533 25.726 106.533 25.138C106.533 24.862 106.371 24.664 106.047 24.544C105.723 24.424 105.225 24.322 104.553 24.238C103.761 24.118 103.107 23.98 102.591 23.824C102.075 23.668 101.625 23.392 101.241 22.996C100.869 22.6 100.683 22.036 100.683 21.304C100.683 20.692 100.857 20.152 101.205 19.684C101.565 19.204 102.081 18.832 102.753 18.568C103.437 18.304 104.241 18.172 105.165 18.172C105.849 18.172 106.527 18.25 107.199 18.406C107.883 18.55 108.447 18.754 108.891 19.018L107.955 21.016C107.103 20.536 106.173 20.296 105.165 20.296C104.565 20.296 104.115 20.38 103.815 20.548C103.515 20.716 103.365 20.932 103.365 21.196C103.365 21.496 103.527 21.706 103.851 21.826C104.175 21.946 104.691 22.06 105.399 22.168C106.191 22.3 106.839 22.444 107.343 22.6C107.847 22.744 108.285 23.014 108.657 23.41C109.029 23.806 109.215 24.358 109.215 25.066C109.215 25.666 109.035 26.2 108.675 26.668C108.315 27.136 107.787 27.502 107.091 27.766C106.407 28.018 105.591 28.144 104.643 28.144ZM115.825 25.894C116.329 25.894 116.773 25.822 117.157 25.678C117.553 25.522 117.919 25.282 118.255 24.958L119.749 26.578C118.837 27.622 117.505 28.144 115.753 28.144C114.661 28.144 113.695 27.934 112.855 27.514C112.015 27.082 111.367 26.488 110.911 25.732C110.455 24.976 110.227 24.118 110.227 23.158C110.227 22.21 110.449 21.358 110.893 20.602C111.349 19.834 111.967 19.24 112.747 18.82C113.539 18.388 114.427 18.172 115.411 18.172C116.335 18.172 117.175 18.37 117.931 18.766C118.687 19.15 119.287 19.714 119.731 20.458C120.187 21.19 120.415 22.06 120.415 23.068L113.251 24.454C113.455 24.934 113.773 25.294 114.205 25.534C114.649 25.774 115.189 25.894 115.825 25.894ZM115.411 20.296C114.703 20.296 114.127 20.524 113.683 20.98C113.239 21.436 113.005 22.066 112.981 22.87L117.697 21.952C117.565 21.448 117.295 21.046 116.887 20.746C116.479 20.446 115.987 20.296 115.411 20.296ZM127.181 25.894C127.685 25.894 128.129 25.822 128.513 25.678C128.909 25.522 129.275 25.282 129.611 24.958L131.105 26.578C130.193 27.622 128.861 28.144 127.109 28.144C126.017 28.144 125.051 27.934 124.211 27.514C123.371 27.082 122.723 26.488 122.267 25.732C121.811 24.976 121.583 24.118 121.583 23.158C121.583 22.21 121.805 21.358 122.249 20.602C122.705 19.834 123.323 19.24 124.103 18.82C124.895 18.388 125.783 18.172 126.767 18.172C127.691 18.172 128.531 18.37 129.287 18.766C130.043 19.15 130.643 19.714 131.087 20.458C131.543 21.19 131.771 22.06 131.771 23.068L124.607 24.454C124.811 24.934 125.129 25.294 125.561 25.534C126.005 25.774 126.545 25.894 127.181 25.894ZM126.767 20.296C126.059 20.296 125.483 20.524 125.039 20.98C124.595 21.436 124.361 22.066 124.337 22.87L129.053 21.952C128.921 21.448 128.651 21.046 128.243 20.746C127.835 20.446 127.343 20.296 126.767 20.296Z" fill="white"/>
</svg>
