<svg width="1280" height="591" viewBox="0 0 1280 591" fill="none" xmlns="http://www.w3.org/2000/svg">
<path d="M0 0L13.6737 8.9205C16.9238 11.0408 21.1071 11.0894 24.4056 9.04513L33.7965 3.22494C36.9901 1.24569 41.0235 1.22352 44.2386 3.16754L54.1238 9.14457C57.4105 11.1319 61.545 11.0612 64.7619 8.96255L73.1064 3.51871C76.391 1.37586 80.6251 1.35082 83.9348 3.45468L92.7028 9.0281C95.9417 11.0869 100.073 11.1105 103.335 9.0887L112.521 3.39574C115.857 1.32808 120.094 1.40329 123.355 3.58803L131.145 8.80728C134.406 10.992 138.643 11.0672 141.979 8.99957L151.094 3.35018C154.393 1.30591 158.576 1.35449 161.826 3.4748L170.174 8.9205C173.424 11.0408 177.607 11.0894 180.906 9.04513L190.232 3.26489C193.459 1.26479 197.541 1.26479 200.768 3.2649L210.094 9.04513C213.393 11.0894 217.576 11.0408 220.826 8.92051L229.174 3.47481C232.424 1.3545 236.607 1.30591 239.906 3.35018L249.165 9.08871C252.427 11.1105 256.558 11.0869 259.797 9.0281L268.635 3.40999C271.909 1.32907 276.091 1.32907 279.365 3.40999L288.135 8.98532C291.409 11.0662 295.591 11.0662 298.865 8.98532L307.635 3.40999C310.909 1.32907 315.091 1.32907 318.365 3.40999L327.203 9.0281C330.442 11.0869 334.573 11.1105 337.835 9.0887L346.944 3.44342C350.319 1.35144 354.613 1.45499 357.884 3.70726L365.181 8.73239C368.419 10.962 372.663 11.0878 376.027 9.05364L385.826 3.12857C389.007 1.205 392.993 1.205 396.174 3.12856L406.05 9.10013C409.375 11.1104 413.563 11.013 416.791 8.85045L424.709 3.54486C427.937 1.38228 432.125 1.28491 435.45 3.29517L445.124 9.14457C448.41 11.1319 452.545 11.0612 455.762 8.96255L464.036 3.56458C467.357 1.39831 471.643 1.39831 474.964 3.56458L483.174 8.9205C486.424 11.0408 490.607 11.0894 493.906 9.04513L503.165 3.3066C506.427 1.28484 510.558 1.30839 513.797 3.36721L522.703 9.0281C525.942 11.0869 530.073 11.1105 533.335 9.0887L542.521 3.39574C545.857 1.32808 550.094 1.40329 553.355 3.58803L561.271 8.89181C564.467 11.0331 568.608 11.1513 571.92 9.19591L582.08 3.1994C585.392 1.24401 589.533 1.36225 592.729 3.5035L600.507 8.7151C603.838 10.9467 608.18 10.9734 611.537 8.78276L619.606 3.51871C622.891 1.37586 627.125 1.35082 630.435 3.45468L639.135 8.98532C642.409 11.0662 646.591 11.0662 649.865 8.98532L658.565 3.45468C661.875 1.35082 666.109 1.37585 669.394 3.5187L677.738 8.96254C680.955 11.0611 685.089 11.1319 688.376 9.14458L698.326 3.12857C701.507 1.205 705.493 1.205 708.674 3.12856L718.55 9.10013C721.875 11.1104 726.063 11.013 729.291 8.85045L736.857 3.78106C740.263 1.49873 744.718 1.5271 748.095 3.85262L755.302 8.81562C758.477 11.0025 762.628 11.1687 765.968 9.24289L776.609 3.10813C779.909 1.20522 784.005 1.34315 787.17 3.46383L795.145 8.80728C798.406 10.992 802.643 11.0672 805.979 8.99957L815.358 3.18665C818.519 1.22749 822.507 1.18443 825.709 3.07483L836.003 9.15054C839.355 11.1293 843.551 10.9828 846.757 8.77488L854.049 3.75358C857.354 1.47782 861.699 1.3978 865.085 3.55034L873.888 9.146C877.03 11.1433 881.022 11.2296 884.247 9.37003L895.109 3.10813C898.409 1.20522 902.505 1.34315 905.67 3.46383L913.578 8.76221C916.873 10.9699 921.161 11.0216 924.508 8.89389L932.992 3.50142C936.339 1.3737 940.627 1.42536 943.922 3.6331L951.83 8.93148C954.995 11.0522 959.091 11.1901 962.391 9.28718L973.109 3.10813C976.409 1.20522 980.505 1.34315 983.67 3.46383L991.578 8.76221C994.873 10.9699 999.161 11.0216 1002.51 8.89389L1011.27 3.32624C1014.47 1.28869 1018.56 1.24297 1021.81 3.20823L1031.55 9.10013C1034.88 11.1104 1039.06 11.013 1042.29 8.85045L1050.14 3.58803C1053.41 1.40329 1057.64 1.32809 1060.98 3.39574L1070.16 9.08871C1073.43 11.1105 1077.56 11.0869 1080.8 9.0281L1089.57 3.45468C1092.87 1.35082 1097.11 1.37585 1100.39 3.5187L1108.74 8.96254C1111.95 11.0611 1116.09 11.1319 1119.38 9.14458L1129.33 3.12857C1132.51 1.205 1136.49 1.205 1139.67 3.12856L1149.39 9.00495C1152.8 11.0639 1157.1 10.908 1160.35 8.60798L1167.02 3.88052C1170.34 1.53346 1174.74 1.42322 1178.17 3.60157L1186.64 8.98532C1189.91 11.0662 1194.09 11.0662 1197.36 8.98532L1206.2 3.36721C1209.44 1.30839 1213.57 1.28484 1216.84 3.30661L1226.09 9.04513C1229.39 11.0894 1233.58 11.0408 1236.83 8.92051L1245.17 3.47481C1248.42 1.3545 1252.61 1.30591 1255.91 3.35018L1264.99 8.97784C1268.34 11.0566 1272.6 10.9685 1275.87 8.75302L1280 5.94975V592H0V0Z" fill="url(#paint0_linear_11_15)"/>
<defs>
<linearGradient id="paint0_linear_11_15" x1="640" y1="5.94975" x2="640" y2="592" gradientUnits="userSpaceOnUse">
<stop stop-color="#00B2CA"/>
<stop offset="1" stop-color="#005864"/>
</linearGradient>
</defs>
</svg>
